<?xml version="1.0" standalone="no"?>
<!DOCTYPE svg PUBLIC "-//W3C//DTD SVG 20010904//EN"
 "http://www.w3.org/TR/2001/REC-SVG-20010904/DTD/svg10.dtd">
<svg version="1.0" xmlns="http://www.w3.org/2000/svg"
 width="400.000000pt" height="400.000000pt" viewBox="0 0 400.000000 400.000000"
 preserveAspectRatio="xMidYMid meet">
<metadata>
Created by potrace 1.11, written by Peter Selinger 2001-2013
</metadata>
<g transform="translate(0.000000,400.000000) scale(0.100000,-0.100000)"
fill="#000000" stroke="none">
<path d="M1836 3730 c-374 -43 -709 -190 -984 -432 -581 -510 -753 -1363 -417
-2063 245 -510 713 -865 1273 -967 156 -28 421 -30 572 -5 276 46 504 138 725
292 742 517 970 1518 523 2299 -306 534 -856 863 -1473 881 -77 2 -175 0 -219
-5z m-471 -903 c22 -12 50 -38 62 -56 l23 -34 0 -633 c0 -424 -4 -642 -11
-661 -13 -35 -45 -70 -84 -91 -24 -13 -57 -15 -163 -14 l-133 2 3 -67 3 -68
460 0 460 0 3 68 3 68 -138 -2 c-160 -3 -194 7 -239 67 l-29 37 -3 636 -2 636
22 45 c17 33 35 51 68 68 43 21 53 22 330 22 157 0 301 -5 320 -10 41 -11 94
-61 109 -103 7 -19 11 -234 11 -645 0 -580 -2 -619 -19 -658 -10 -23 -34 -52
-52 -65 -31 -22 -45 -24 -176 -27 l-143 -3 0 -70 0 -69 463 2 462 3 3 68 3 67
-149 0 c-138 0 -151 2 -182 23 -18 12 -43 35 -54 50 -21 28 -21 35 -21 682 0
644 0 654 21 682 11 15 40 38 64 51 43 21 54 22 325 22 162 0 296 -4 317 -10
57 -16 96 -54 113 -113 13 -43 15 -141 15 -631 0 -363 -4 -598 -11 -626 -6
-25 -22 -58 -37 -74 -44 -47 -79 -56 -216 -56 l-124 0 -4 -76 c-3 -69 -6 -79
-32 -100 l-28 -24 -466 2 c-257 2 -475 7 -485 12 -17 8 -18 0 -16 -123 l1
-131 424 0 424 0 0 -90 0 -90 -835 0 -835 0 0 90 0 90 405 0 405 0 0 123 0
122 -471 -3 -470 -2 -30 29 c-26 27 -29 36 -29 95 l0 66 -57 1 c-32 0 -83 0
-114 -1 -112 -3 -188 33 -220 104 -17 39 -19 78 -19 646 0 404 4 618 11 645
13 48 62 102 104 114 16 5 163 10 325 10 288 1 296 0 335 -22z"/>
<path d="M720 2757 c-50 -26 -50 -21 -50 -659 0 -355 4 -607 10 -622 20 -53
33 -55 330 -56 151 -1 283 -1 293 -1 10 1 29 12 42 26 l25 24 0 620 0 620 -24
28 -24 28 -289 3 c-218 2 -294 -1 -313 -11z m337 -43 c3 -8 -2 -23 -11 -32
-15 -15 -17 -15 -32 0 -21 21 -11 48 16 48 11 0 23 -7 27 -16z m67 -60 c9 -3
16 -15 16 -25 0 -18 -9 -19 -114 -19 -116 0 -139 7 -116 35 9 11 36 15 105 15
52 0 100 -3 109 -6z m200 -120 c8 -21 7 -852 -1 -882 l-5 -22 -299 0 -299 0 0
460 0 460 299 0 c267 0 300 -2 305 -16z m-230 -954 c31 -30 27 -87 -8 -116
-55 -48 -136 -13 -136 58 0 38 6 48 40 72 30 21 76 15 104 -14z"/>
<path d="M823 2503 l-53 -4 0 -410 0 -409 250 0 250 0 0 409 0 408 -46 7 c-47
6 -305 5 -401 -1z m251 -203 c47 -17 61 -156 20 -191 -13 -10 -12 -14 3 -31
14 -15 19 -41 22 -105 l3 -84 -38 3 -39 3 -3 70 c-3 70 -13 95 -38 95 -11 0
-14 -19 -14 -85 l0 -85 -40 0 -40 0 0 210 0 210 69 0 c38 0 81 -4 95 -10z"/>
<path d="M990 2185 c0 -53 1 -56 23 -53 19 3 22 9 22 53 0 44 -3 50 -22 53
-22 3 -23 0 -23 -53z"/>
<path d="M1012 1551 c-8 -4 -12 -19 -10 -32 4 -29 45 -34 61 -7 19 30 -19 60
-51 39z"/>
<path d="M1714 2760 c-56 -23 -54 -3 -54 -668 0 -676 -2 -649 62 -671 19 -7
131 -11 290 -11 275 0 314 6 337 48 8 14 11 214 11 636 l0 615 -24 28 -24 28
-289 2 c-158 1 -298 -2 -309 -7z m330 -39 c11 -18 -6 -41 -30 -41 -19 0 -24 5
-24 25 0 20 5 25 24 25 14 0 27 -4 30 -9z m81 -82 c22 -21 -16 -30 -121 -27
-92 3 -109 6 -112 20 -2 9 4 18 15 20 31 7 208 -4 218 -13z m183 -546 l-3
-458 -297 -3 -298 -2 0 460 0 460 300 0 300 0 -2 -457z m-230 -516 c32 -29 30
-81 -4 -112 -68 -63 -162 11 -128 100 9 22 63 46 89 38 11 -3 30 -15 43 -26z"/>
<path d="M1788 2503 l-28 -4 0 -408 0 -408 46 -7 c60 -8 212 -8 347 1 l107 6
0 414 0 413 -222 -1 c-123 -1 -235 -4 -250 -6z m274 -204 c36 -19 48 -69 48
-204 0 -183 -16 -205 -146 -205 l-64 0 0 210 0 210 71 0 c39 0 79 -5 91 -11z"/>
<path d="M1970 2100 c0 -136 2 -150 18 -150 42 1 47 14 50 143 3 105 1 126
-13 140 -9 9 -25 17 -36 17 -18 0 -19 -9 -19 -150z"/>
<path d="M1991 1546 c-19 -22 -4 -56 23 -56 32 0 53 26 39 48 -14 23 -47 27
-62 8z"/>
<path d="M2687 2759 c-46 -27 -47 -43 -47 -671 0 -575 1 -594 20 -626 11 -18
32 -37 46 -42 14 -6 142 -10 290 -10 292 0 321 5 343 56 8 22 11 184 9 642
l-3 614 -28 24 -28 24 -292 0 c-189 -1 -299 -4 -310 -11z m338 -54 c0 -23 -34
-33 -46 -14 -10 17 9 41 30 37 9 -2 16 -12 16 -23z m85 -75 c0 -20 -5 -21
-112 -18 -98 3 -113 5 -116 21 -3 15 7 17 112 17 110 0 116 -1 116 -20z m184
-96 c8 -20 8 -868 0 -888 -5 -14 -41 -16 -300 -16 l-294 0 0 460 0 460 294 0
c259 0 295 -2 300 -16z m-224 -962 c28 -35 25 -69 -9 -103 -36 -35 -70 -37
-107 -5 -49 41 -30 129 30 138 38 6 66 -4 86 -30z"/>
<path d="M2757 2504 c-4 -4 -7 -190 -7 -414 l0 -407 46 -7 c60 -8 212 -8 348
1 l106 6 -2 411 -3 411 -241 3 c-132 1 -243 -1 -247 -4z m217 -306 c27 -176
28 -177 50 -28 l21 135 48 3 47 3 0 -211 0 -211 -32 3 -33 3 -5 105 -5 105
-14 -95 c-17 -119 -17 -120 -52 -120 -32 0 -30 -5 -55 140 -8 52 -17 97 -20
99 -2 2 -4 -50 -4 -117 l0 -122 -30 0 -30 0 0 210 0 210 49 0 48 0 17 -112z"/>
<path d="M2977 1554 c-14 -14 -7 -53 12 -63 26 -14 54 8 49 40 -2 17 -10 25
-28 27 -14 2 -29 0 -33 -4z"/>
<path d="M1200 810 l0 -80 825 0 825 0 0 80 0 80 -825 0 -825 0 0 -80z m109
31 c7 -5 15 -25 16 -45 2 -40 -9 -48 -19 -13 l-6 22 -15 -25 c-14 -24 -14 -24
-15 23 0 48 9 57 39 38z m121 -1 c0 -5 -7 -10 -15 -10 -21 0 -19 -20 3 -21 16
-1 16 -2 0 -6 -22 -5 -24 -23 -3 -23 8 0 15 -5 15 -11 0 -6 -10 -9 -22 -7 -40
5 -38 88 2 88 11 0 20 -4 20 -10z m109 -39 c10 -31 4 -63 -6 -33 -5 14 -33 16
-33 2 0 -5 -5 -10 -11 -10 -6 0 -8 9 -3 23 24 78 32 81 53 18z m394 31 c-27
-4 -31 -21 -5 -23 16 -1 16 -2 0 -6 -22 -5 -24 -23 -3 -23 8 0 15 -4 15 -10 0
-5 -9 -10 -20 -10 -17 0 -20 7 -20 39 0 39 19 57 45 42 6 -3 0 -7 -12 -9z
m-313 -22 c0 -20 5 -30 15 -30 8 0 15 -4 15 -10 0 -5 -11 -10 -25 -10 -22 0
-25 4 -25 40 0 22 5 40 10 40 6 0 10 -13 10 -30z m218 2 c4 -28 -14 -52 -39
-52 -16 0 -19 8 -19 41 0 38 1 40 28 37 19 -2 28 -9 30 -26z m207 14 c17 22
19 7 5 -30 -12 -33 -24 -33 -38 -1 -17 36 -14 54 3 31 15 -20 15 -20 30 0z
m87 -22 c2 -19 0 -37 -4 -40 -4 -3 -8 13 -8 35 0 51 6 53 12 5z m118 19 c0
-13 -3 -14 -12 -5 -19 19 -28 14 -28 -14 0 -21 4 -25 20 -21 23 6 27 -11 5
-19 -30 -12 -62 46 -38 69 14 15 53 7 53 -10z m93 10 c-27 -5 -31 -22 -5 -24
16 -1 16 -2 0 -6 -22 -5 -24 -23 -3 -23 8 0 15 -4 15 -10 0 -5 -9 -10 -20 -10
-17 0 -20 7 -20 40 0 37 2 40 28 39 23 -2 24 -2 5 -6z m172 -20 l8 -28 10 28
c16 40 27 33 26 -15 -1 -35 -2 -38 -8 -18 l-7 25 -8 -24 -8 -24 -13 23 -13 24
-5 -24 c-3 -16 -5 -10 -6 18 -1 47 13 56 24 15z m154 -4 c13 -39 14 -59 1 -39
-8 13 -13 13 -31 2 -19 -12 -21 -12 -15 3 3 9 9 28 12 41 8 33 20 30 33 -7z
m126 11 c0 -8 -10 -19 -22 -25 -12 -5 -24 -16 -27 -25 -2 -8 -4 4 -5 28 -1 42
0 43 27 40 16 -2 27 -9 27 -18z"/>
<path d="M1290 820 c0 -5 5 -10 10 -10 6 0 10 5 10 10 0 6 -4 10 -10 10 -5 0
-10 -4 -10 -10z"/>
<path d="M1790 805 c0 -15 6 -25 14 -25 19 0 28 14 20 34 -10 25 -34 19 -34
-9z"/>
<path d="M2750 820 c0 -5 7 -10 15 -10 8 0 15 5 15 10 0 6 -7 10 -15 10 -8 0
-15 -4 -15 -10z"/>
</g>
</svg>
